<?xml version="1.0" encoding="UTF-8"?>
<svg width="353px" height="409px" viewBox="0 0 353 409" version="1.1" xmlns="http://www.w3.org/2000/svg" xmlns:xlink="http://www.w3.org/1999/xlink">
    <title>Placeholder-Light</title>
    <g id="Landing-Page" stroke="none" stroke-width="1" fill="none" fill-rule="evenodd">
        <g id="Landing-(Light)" transform="translate(-13.000000, -138.000000)" stroke="#FF792E" stroke-width="7">
            <g id="Placeholder-Light" transform="translate(16.850337, 141.997577)">
                <path d="M190.731138,258.056985 C191.282538,252.573315 192.15741,249.285425 193.355753,248.193315 C196.318668,244.261288 202.289977,248.20857 221.875968,240.709134 C225.136063,239.032079 226.507451,234.656808 226.041956,231.95597 C225.654921,229.710359 224.572307,229.497585 224.572307,227.466443 C224.572307,225.999735 225.192308,225.694368 226.277367,224.721351 C227.051497,224.027156 228.472237,224.24261 228.472237,221.631773 C228.699353,219.752681 226.041956,219.084766 226.041956,218.411583 C226.041956,217.7384 228.23934,217.394642 229.596987,215.531753 C230.308973,214.554805 230.310724,213.796026 230.019693,212.477375 C229.874809,211.820911 229.443255,212.244711 229.362689,211.557687 C229.00734,208.527481 229.241638,207.338006 229.596987,205.372668 C229.596987,204.00395 232.71972,204.919211 235.45359,202.350226 C237.304936,200.61054 238.315836,198.852316 237.423584,196.516863 C233.031015,188.937152 229.592723,186.028772 224.572307,174.73531 C224.006865,172.068435 225.731294,172.068435 226.277367,169.602506 C226.82344,167.136576 227.046567,164.299345 226.277367,160.63467 C225.508167,156.969994 221.875968,144.006336 220.616597,140.731995 C219.357226,137.457654 210.041148,115.822408 183.875704,109.300461 C162.445453,105.180678 133.815363,110.672883 118.1157,128.303506 C109.076095,137.154292 105.922172,149.127327 104.295984,156.659401 C102.731779,164.278759 104.044675,178.098124 110.482774,188.288595 C116.920873,198.479066 120.104373,202.451886 123.281678,207.431821 C125.440177,210.814935 125.440177,210.814935 126.927245,214.756804 C128.414313,218.698673 128.398083,220.62642 128.871496,226.605955 C129.165872,230.324137 129.199605,236.086016 128.972694,243.891592 C128.919177,245.732895 130.130061,247.372674 131.905597,247.863317 L184.42447,262.376121 C187.086137,263.111624 189.840092,261.550168 190.575603,258.888503 C190.650844,258.616222 190.702875,258.338054 190.731138,258.056985 Z" id="Path-6-Copy-5"></path>
                <path d="M207.234167,323.914787 C208.149604,311.770947 209.799474,304.61256 212.183777,302.439626 C217.349884,295.583785 227.761399,302.466224 261.911332,289.390284 C267.595598,286.466189 269.986737,278.837512 269.175105,274.128358 C268.500274,270.212934 266.61264,269.841943 266.61264,266.300464 C266.61264,263.743128 267.693668,263.210694 269.585565,261.514151 C270.93533,260.30376 273.412518,260.679422 273.412518,256.127194 C273.808516,252.850829 269.175105,251.686259 269.175105,250.512503 C269.175105,249.338748 273.006441,248.739376 275.37362,245.491262 C276.615033,243.787864 276.618086,242.464865 276.110646,240.165679 C275.858028,239.021076 275.105576,239.760008 274.965101,238.56212 C274.345518,233.278685 274.754038,231.204729 275.37362,227.777985 C275.37362,225.391503 280.818386,226.987342 285.585134,222.508087 C288.813121,219.474787 290.575717,216.409167 289.019995,212.337094 C281.361157,199.121188 275.366186,194.050166 266.61264,174.359002 C265.626741,169.709066 268.633438,169.709066 269.585565,165.409497 C270.537692,161.109928 270.926734,156.162961 269.585565,149.77327 C268.244396,143.383579 261.911332,120.780277 259.715505,115.07117 C257.519678,109.362063 241.276261,71.63907 195.65446,60.2674701 C158.288894,53.0842585 108.369763,62.6604119 80.9959927,93.4009856 C65.2346292,108.833124 59.735482,129.709186 56.9000774,142.842033 C54.1727445,156.127066 56.4618971,180.22237 67.6873004,197.99037 C78.9127038,215.758371 84.4634212,222.685339 90.0033381,231.368304 C93.7668746,237.267066 93.7668746,237.267066 96.359711,244.140069 C98.9525474,251.013071 98.9242492,254.374271 99.7496871,264.800126 C100.291701,271.646136 100.326937,282.465762 99.8553962,297.259006 C99.7965709,299.104339 101.008379,300.750191 102.787954,301.24195 L200.916553,328.358318 C203.578221,329.093828 206.33218,327.53237 207.067692,324.870702 C207.154043,324.558214 207.209797,324.238069 207.234167,323.914787 Z" id="Path-6-Copy-5" opacity="0.6"></path>
                <path d="M223.525507,395.862624 C224.83013,376.177403 227.335884,364.645658 231.042769,361.267388 C238.677972,351.134858 254.065578,361.306699 304.53717,341.981229 C312.938182,337.659588 316.472144,326.384852 315.2726,319.425 C314.27524,313.638234 311.485426,313.089931 311.485426,307.855833 C311.485426,304.07624 313.083123,303.289334 315.879235,300.781943 C317.874109,298.993057 321.535247,299.548263 321.535247,292.820338 C322.120508,287.978064 315.2726,286.256897 315.2726,284.522156 C315.2726,282.787415 320.935089,281.901577 324.433641,277.101057 C326.268375,274.583535 326.272887,272.62822 325.522922,269.230158 C325.149567,267.538501 324.037486,268.6306 323.829872,266.860192 C322.914165,259.051587 323.517934,255.986401 324.433641,250.921875 C324.433641,247.394794 332.480683,249.753351 339.525657,243.133276 C344.296432,238.650237 346.901445,234.11943 344.60218,228.101146 C333.282868,208.568815 324.422654,201.074142 311.485426,171.97176 C310.028326,165.099429 314.472048,165.099429 315.879235,158.744919 C317.286422,152.390409 317.861404,145.079082 315.879235,135.635495 C313.897066,126.191907 304.53717,92.7855571 301.291867,84.3478323 C298.046563,75.9101074 274.039749,20.1577432 206.61341,3.35118737 C151.389303,-7.26517678 77.6117625,6.88781459 37.1549409,52.3205744 C13.8605728,75.1283674 5.73315678,105.981959 1.54259554,125.391534 C-2.48824209,145.026032 0.894990788,180.637473 17.4854766,206.897533 C34.0759625,233.157592 42.2795963,243.395244 50.4672676,256.228155 C56.0295531,264.946179 56.0295531,264.946179 59.8616128,275.104072 C63.6936725,285.261965 63.6518494,290.229621 64.8717982,305.638421 C65.6910496,315.986136 65.7269184,332.476317 64.9794046,355.108962 C64.9184003,356.955944 66.1305822,358.60429 67.9118138,359.096507 L217.204689,400.351356 C219.866358,401.086869 222.620318,399.52541 223.35583,396.863741 C223.446215,396.536658 223.503067,396.201223 223.525507,395.862624 Z" id="Path-6-Copy-5" opacity="0.3"></path>
            </g>
        </g>
    </g>
</svg>